 <svg  version="1.0" xmlns="http://www.w3.org/2000/svg"  width="900.000000pt" height="900.000000pt" viewBox="0 0 900.000000 900.000000"  preserveAspectRatio="xMidYMid meet">  <g transform="translate(0.000000,900.000000) scale(0.100000,-0.100000)" fill="#454545" stroke="none"> <path d="M2580 7705 c-168 -31 -312 -101 -439 -212 -49 -43 -171 -192 -171 -209 0 -4 -6 -15 -14 -23 -18 -22 -76 -165 -76 -190 0 -11 -9 -25 -19 -31 -13 -6 -256 -10 -713 -11 -506 0 -702 -4 -726 -12 -71 -26 -132 -113 -132 -189 0 -50 29 -113 68 -146 62 -53 42 -52 781 -52 377 0 696 -3 709 -6 13 -4 24 -17 28 -33 23 -106 117 -272 213 -375 126 -134 317 -235 505 -266 375 -61 756 131 932 472 34 64 64 145 64 170 0 11 11 23 26 28 16 6 905 10 2468 10 2647 0 2473 -4 2538 52 39 33 68 96 68 146 0 82 -68 172 -145 191 -31 8 -747 11 -2480 11 -1660 0 -2442 3 -2456 10 -10 6 -19 19 -19 28 0 52 -71 194 -152 304 -188 256 -539 393 -858 333z m236 -394 c136 -20 291 -130 349 -248 34 -70 65 -182 65 -237 0 -54 -36 -177 -69 -237 -52 -94 -157 -183 -266 -224 -71 -27 -249 -28 -320 -1 -157 60 -274 189 -316 351 -24 88 -23 142 0 230 27 101 67 169 139 236 118 111 255 153 418 130z"/> <path d="M6550 5365 c-322 -60 -604 -313 -686 -615 -3 -14 -13 -33 -22 -42 -14 -17 -156 -18 -2701 -19 -2060 0 -2694 -3 -2719 -13 -41 -14 -95 -66 -116 -111 -44 -92 15 -225 116 -262 25 -9 682 -12 2719 -12 2545 -1 2687 -2 2702 -18 8 -10 19 -31 22 -48 4 -16 27 -71 51 -122 209 -440 748 -628 1185 -413 95 47 107 54 180 113 122 100 222 245 279 405 l27 77 479 5 c325 3 487 9 504 16 63 29 120 116 120 185 0 74 -61 160 -132 185 -24 9 -163 13 -493 13 -253 1 -465 5 -471 9 -6 4 -21 36 -33 72 -92 268 -293 470 -561 564 -121 43 -314 56 -450 31z m326 -411 c88 -38 109 -52 174 -111 97 -90 140 -180 147 -312 10 -167 -28 -272 -137 -382 -256 -260 -688 -160 -809 187 -28 79 -29 228 -2 305 32 90 52 121 122 192 70 70 162 122 244 138 63 12 218 2 261 -17z"/> <path d="M3820 3024 c-280 -55 -518 -242 -641 -504 -25 -54 -39 -93 -39 -108 0 -10 -6 -26 -12 -35 -12 -16 -106 -17 -1343 -20 -1215 -2 -1333 -3 -1365 -19 -145 -68 -174 -227 -61 -334 59 -56 9 -54 1433 -54 l1317 0 15 -22 c9 -12 16 -30 16 -40 0 -9 16 -51 35 -93 130 -286 376 -473 686 -524 202 -33 441 19 616 136 119 79 266 242 309 343 3 8 12 29 19 45 7 17 21 50 30 75 9 25 20 52 25 60 6 13 224 16 1841 20 1978 5 1863 2 1922 58 110 104 80 263 -63 330 -32 16 -183 17 -1855 19 -1001 1 -1827 4 -1836 6 -9 3 -19 15 -22 28 -61 261 -304 516 -577 606 -128 42 -318 54 -450 27z m376 -430 c308 -144 379 -550 138 -789 -58 -57 -93 -79 -192 -120 -62 -26 -241 -27 -303 -1 -120 50 -179 94 -244 181 -90 120 -119 282 -75 422 23 73 31 89 87 164 51 69 98 106 178 144 79 38 121 45 236 40 86 -4 105 -8 175 -41z"/> </g> </svg> 